<mxfile host="app.diagrams.net" modified="2022-12-07T09:51:11.489Z" agent="5.0 (Windows NT 10.0; Win64; x64) AppleWebKit/537.36 (KHTML, like Gecko) Chrome/106.0.0.0 Safari/537.36 OPR/92.0.0.0" etag="mmshkuU1k96xRGP4pgZe" version="20.6.0" type="github">
  <diagram id="7OmHJpSwhK-Y_obriQ0j" name="Page-1">
    <mxGraphModel dx="3099" dy="2225" grid="1" gridSize="10" guides="1" tooltips="1" connect="1" arrows="1" fold="1" page="1" pageScale="1" pageWidth="850" pageHeight="1100" math="0" shadow="0">
      <root>
        <mxCell id="0" />
        <mxCell id="1" parent="0" />
        <mxCell id="1ciSNddEploUr1sxx8pW-3" style="edgeStyle=orthogonalEdgeStyle;rounded=0;orthogonalLoop=1;jettySize=auto;html=1;exitX=0.5;exitY=1;exitDx=0;exitDy=0;entryX=0.5;entryY=0;entryDx=0;entryDy=0;" parent="1" source="1ciSNddEploUr1sxx8pW-1" target="1ciSNddEploUr1sxx8pW-2" edge="1">
          <mxGeometry relative="1" as="geometry" />
        </mxCell>
        <mxCell id="1ciSNddEploUr1sxx8pW-1" value="Bắt Đầu" style="ellipse;whiteSpace=wrap;html=1;" parent="1" vertex="1">
          <mxGeometry x="-555" y="-10" width="110" height="80" as="geometry" />
        </mxCell>
        <mxCell id="1ciSNddEploUr1sxx8pW-7" style="edgeStyle=orthogonalEdgeStyle;rounded=0;orthogonalLoop=1;jettySize=auto;html=1;exitX=0.5;exitY=1;exitDx=0;exitDy=0;entryX=0.5;entryY=0;entryDx=0;entryDy=0;" parent="1" source="1ciSNddEploUr1sxx8pW-2" target="1ciSNddEploUr1sxx8pW-6" edge="1">
          <mxGeometry relative="1" as="geometry" />
        </mxCell>
        <mxCell id="1ciSNddEploUr1sxx8pW-2" value="Nhập n" style="shape=parallelogram;perimeter=parallelogramPerimeter;whiteSpace=wrap;html=1;fixedSize=1;" parent="1" vertex="1">
          <mxGeometry x="-560" y="100" width="120" height="60" as="geometry" />
        </mxCell>
        <mxCell id="lpzMeWUNliNwH_oLqPgW-92" style="edgeStyle=orthogonalEdgeStyle;rounded=0;orthogonalLoop=1;jettySize=auto;html=1;exitX=0.5;exitY=1;exitDx=0;exitDy=0;entryX=0.5;entryY=1;entryDx=0;entryDy=0;" edge="1" parent="1" source="1ciSNddEploUr1sxx8pW-6" target="lpzMeWUNliNwH_oLqPgW-1">
          <mxGeometry relative="1" as="geometry" />
        </mxCell>
        <mxCell id="1ciSNddEploUr1sxx8pW-6" value="Tạo các mảng Process[i]&amp;nbsp;&lt;br&gt;ProcessID[i], BurstTime[i], ArrivalTime[i], FinishTime[i], TurnTime[i], WaitTime[i], StartTime[i], resTime[i]&lt;br&gt;&lt;br&gt;Xóa 0 khi tạo mảng&lt;br&gt;&lt;br&gt;list = []&lt;br&gt;&lt;br&gt;i=0&lt;br&gt;&lt;br&gt;tag = Process[0]" style="whiteSpace=wrap;html=1;aspect=fixed;" parent="1" vertex="1">
          <mxGeometry x="-610" y="190" width="220" height="220" as="geometry" />
        </mxCell>
        <mxCell id="1ciSNddEploUr1sxx8pW-51" style="edgeStyle=orthogonalEdgeStyle;rounded=0;orthogonalLoop=1;jettySize=auto;html=1;exitX=0.5;exitY=0;exitDx=0;exitDy=0;entryX=0.5;entryY=1;entryDx=0;entryDy=0;" parent="1" source="1ciSNddEploUr1sxx8pW-10" target="1ciSNddEploUr1sxx8pW-14" edge="1">
          <mxGeometry relative="1" as="geometry" />
        </mxCell>
        <mxCell id="lpzMeWUNliNwH_oLqPgW-94" style="edgeStyle=orthogonalEdgeStyle;rounded=0;orthogonalLoop=1;jettySize=auto;html=1;exitX=0.5;exitY=1;exitDx=0;exitDy=0;entryX=0;entryY=0.5;entryDx=0;entryDy=0;" edge="1" parent="1" source="1ciSNddEploUr1sxx8pW-10" target="1ciSNddEploUr1sxx8pW-24">
          <mxGeometry relative="1" as="geometry" />
        </mxCell>
        <mxCell id="1ciSNddEploUr1sxx8pW-10" value="i in range (0, sum(Burst Time)" style="rhombus;whiteSpace=wrap;html=1;" parent="1" vertex="1">
          <mxGeometry x="140" y="265" width="210" height="90" as="geometry" />
        </mxCell>
        <mxCell id="1ciSNddEploUr1sxx8pW-55" style="edgeStyle=orthogonalEdgeStyle;rounded=0;orthogonalLoop=1;jettySize=auto;html=1;exitX=1;exitY=0.5;exitDx=0;exitDy=0;entryX=1;entryY=0.5;entryDx=0;entryDy=0;" parent="1" source="1ciSNddEploUr1sxx8pW-14" target="1ciSNddEploUr1sxx8pW-10" edge="1">
          <mxGeometry relative="1" as="geometry">
            <Array as="points">
              <mxPoint x="350" y="190" />
            </Array>
          </mxGeometry>
        </mxCell>
        <mxCell id="lpzMeWUNliNwH_oLqPgW-33" style="edgeStyle=orthogonalEdgeStyle;rounded=0;orthogonalLoop=1;jettySize=auto;html=1;exitX=0.5;exitY=0;exitDx=0;exitDy=0;entryX=0.5;entryY=1;entryDx=0;entryDy=0;" edge="1" parent="1" source="1ciSNddEploUr1sxx8pW-14" target="1ciSNddEploUr1sxx8pW-18">
          <mxGeometry relative="1" as="geometry" />
        </mxCell>
        <mxCell id="1ciSNddEploUr1sxx8pW-14" value="j[1] &amp;lt; i" style="rhombus;whiteSpace=wrap;html=1;" parent="1" vertex="1">
          <mxGeometry x="165" y="150" width="160" height="80" as="geometry" />
        </mxCell>
        <mxCell id="lpzMeWUNliNwH_oLqPgW-57" style="edgeStyle=orthogonalEdgeStyle;rounded=0;orthogonalLoop=1;jettySize=auto;html=1;exitX=0.5;exitY=0;exitDx=0;exitDy=0;entryX=0.5;entryY=1;entryDx=0;entryDy=0;" edge="1" parent="1" source="1ciSNddEploUr1sxx8pW-18" target="lpzMeWUNliNwH_oLqPgW-55">
          <mxGeometry relative="1" as="geometry" />
        </mxCell>
        <mxCell id="1ciSNddEploUr1sxx8pW-18" value="l = [j for j in Process]&lt;br&gt;&lt;br&gt;l.sort(reverse = False, key= lambda x: x[0])&lt;br&gt;&lt;br&gt;Process[Process.index(l[0])[0] -= 1&amp;nbsp;&lt;br&gt;" style="rounded=0;whiteSpace=wrap;html=1;" parent="1" vertex="1">
          <mxGeometry x="150" width="189.99" height="110" as="geometry" />
        </mxCell>
        <mxCell id="lpzMeWUNliNwH_oLqPgW-74" style="edgeStyle=orthogonalEdgeStyle;rounded=0;orthogonalLoop=1;jettySize=auto;html=1;exitX=0.5;exitY=1;exitDx=0;exitDy=0;entryX=0.5;entryY=0;entryDx=0;entryDy=0;" edge="1" parent="1" source="1ciSNddEploUr1sxx8pW-24" target="lpzMeWUNliNwH_oLqPgW-73">
          <mxGeometry relative="1" as="geometry" />
        </mxCell>
        <mxCell id="lpzMeWUNliNwH_oLqPgW-96" style="edgeStyle=orthogonalEdgeStyle;rounded=0;orthogonalLoop=1;jettySize=auto;html=1;exitX=1;exitY=0.5;exitDx=0;exitDy=0;entryX=0;entryY=0.5;entryDx=0;entryDy=0;" edge="1" parent="1" source="1ciSNddEploUr1sxx8pW-24" target="lpzMeWUNliNwH_oLqPgW-72">
          <mxGeometry relative="1" as="geometry" />
        </mxCell>
        <mxCell id="1ciSNddEploUr1sxx8pW-24" value="i in list" style="rhombus;whiteSpace=wrap;html=1;" parent="1" vertex="1">
          <mxGeometry x="267.5" y="355" width="155" height="80" as="geometry" />
        </mxCell>
        <mxCell id="lpzMeWUNliNwH_oLqPgW-48" style="edgeStyle=orthogonalEdgeStyle;rounded=0;orthogonalLoop=1;jettySize=auto;html=1;exitX=1;exitY=0.5;exitDx=0;exitDy=0;entryX=0;entryY=0.5;entryDx=0;entryDy=0;" edge="1" parent="1" source="1ciSNddEploUr1sxx8pW-33" target="1ciSNddEploUr1sxx8pW-39">
          <mxGeometry relative="1" as="geometry" />
        </mxCell>
        <mxCell id="lpzMeWUNliNwH_oLqPgW-99" style="edgeStyle=orthogonalEdgeStyle;rounded=0;orthogonalLoop=1;jettySize=auto;html=1;exitX=0;exitY=0.5;exitDx=0;exitDy=0;entryX=1;entryY=0.5;entryDx=0;entryDy=0;" edge="1" parent="1" source="1ciSNddEploUr1sxx8pW-33" target="1ciSNddEploUr1sxx8pW-77">
          <mxGeometry relative="1" as="geometry" />
        </mxCell>
        <mxCell id="1ciSNddEploUr1sxx8pW-33" value="i in range(len(finishTime))" style="rhombus;whiteSpace=wrap;html=1;" parent="1" vertex="1">
          <mxGeometry x="261.57" y="650" width="166.87" height="90" as="geometry" />
        </mxCell>
        <mxCell id="lpzMeWUNliNwH_oLqPgW-87" style="edgeStyle=orthogonalEdgeStyle;rounded=0;orthogonalLoop=1;jettySize=auto;html=1;exitX=0.5;exitY=1;exitDx=0;exitDy=0;entryX=0.5;entryY=1;entryDx=0;entryDy=0;" edge="1" parent="1" source="1ciSNddEploUr1sxx8pW-39" target="1ciSNddEploUr1sxx8pW-33">
          <mxGeometry relative="1" as="geometry" />
        </mxCell>
        <mxCell id="1ciSNddEploUr1sxx8pW-39" value="turnTime[i] = finishTime[i] - ArrivalTime[i]&lt;br&gt;&lt;br&gt;waitTime[i] = turnTime[i] - BurstTime[i]&lt;br&gt;&lt;br&gt;resTime[i] = StartTime[i] - ArrivalTime[i]" style="whiteSpace=wrap;html=1;aspect=fixed;" parent="1" vertex="1">
          <mxGeometry x="477.5" y="607.5" width="175" height="175" as="geometry" />
        </mxCell>
        <mxCell id="1ciSNddEploUr1sxx8pW-76" style="edgeStyle=orthogonalEdgeStyle;rounded=0;orthogonalLoop=1;jettySize=auto;html=1;exitX=0;exitY=0.5;exitDx=0;exitDy=0;entryX=1;entryY=0.5;entryDx=0;entryDy=0;" parent="1" source="1ciSNddEploUr1sxx8pW-43" target="1ciSNddEploUr1sxx8pW-47" edge="1">
          <mxGeometry relative="1" as="geometry" />
        </mxCell>
        <mxCell id="1ciSNddEploUr1sxx8pW-43" value="tính và in&amp;nbsp; Average Waiting Time, Average TurnAround Time, Average ResponseTime" style="whiteSpace=wrap;html=1;aspect=fixed;" parent="1" vertex="1">
          <mxGeometry x="-90" y="625" width="140" height="140" as="geometry" />
        </mxCell>
        <mxCell id="1ciSNddEploUr1sxx8pW-47" value="Kết thúc" style="ellipse;whiteSpace=wrap;html=1;aspect=fixed;" parent="1" vertex="1">
          <mxGeometry x="-200" y="655" width="80" height="80" as="geometry" />
        </mxCell>
        <mxCell id="1ciSNddEploUr1sxx8pW-57" value="F" style="text;html=1;align=center;verticalAlign=middle;resizable=0;points=[];autosize=1;strokeColor=none;fillColor=none;" parent="1" vertex="1">
          <mxGeometry x="347.49" y="230" width="30" height="30" as="geometry" />
        </mxCell>
        <mxCell id="1ciSNddEploUr1sxx8pW-81" style="edgeStyle=orthogonalEdgeStyle;rounded=0;orthogonalLoop=1;jettySize=auto;html=1;exitX=0.5;exitY=1;exitDx=0;exitDy=0;entryX=1;entryY=0.5;entryDx=0;entryDy=0;" parent="1" source="1ciSNddEploUr1sxx8pW-66" target="1ciSNddEploUr1sxx8pW-10" edge="1">
          <mxGeometry relative="1" as="geometry" />
        </mxCell>
        <mxCell id="lpzMeWUNliNwH_oLqPgW-35" style="edgeStyle=orthogonalEdgeStyle;rounded=0;orthogonalLoop=1;jettySize=auto;html=1;exitX=1;exitY=0.5;exitDx=0;exitDy=0;entryX=0;entryY=0.5;entryDx=0;entryDy=0;" edge="1" parent="1" source="1ciSNddEploUr1sxx8pW-66" target="1ciSNddEploUr1sxx8pW-91">
          <mxGeometry relative="1" as="geometry" />
        </mxCell>
        <mxCell id="1ciSNddEploUr1sxx8pW-66" value="k in Process" style="rhombus;whiteSpace=wrap;html=1;" parent="1" vertex="1">
          <mxGeometry x="417.5" y="-142.5" width="160" height="80" as="geometry" />
        </mxCell>
        <mxCell id="lpzMeWUNliNwH_oLqPgW-100" style="edgeStyle=orthogonalEdgeStyle;rounded=0;orthogonalLoop=1;jettySize=auto;html=1;exitX=0;exitY=0.5;exitDx=0;exitDy=0;" edge="1" parent="1" source="1ciSNddEploUr1sxx8pW-77" target="1ciSNddEploUr1sxx8pW-43">
          <mxGeometry relative="1" as="geometry" />
        </mxCell>
        <mxCell id="1ciSNddEploUr1sxx8pW-77" value="In ra màn hình ID, Burst Time, Arrival Time, Finish Time, Turn Around Time, Waiting Time của từng Process" style="whiteSpace=wrap;html=1;aspect=fixed;" parent="1" vertex="1">
          <mxGeometry x="90" y="630" width="130" height="130" as="geometry" />
        </mxCell>
        <mxCell id="lpzMeWUNliNwH_oLqPgW-37" style="edgeStyle=orthogonalEdgeStyle;rounded=0;orthogonalLoop=1;jettySize=auto;html=1;exitX=1;exitY=0.5;exitDx=0;exitDy=0;entryX=0;entryY=0.5;entryDx=0;entryDy=0;" edge="1" parent="1" source="1ciSNddEploUr1sxx8pW-91" target="1ciSNddEploUr1sxx8pW-96">
          <mxGeometry relative="1" as="geometry" />
        </mxCell>
        <mxCell id="lpzMeWUNliNwH_oLqPgW-79" style="edgeStyle=orthogonalEdgeStyle;rounded=0;orthogonalLoop=1;jettySize=auto;html=1;exitX=0.5;exitY=0;exitDx=0;exitDy=0;entryX=0.5;entryY=0;entryDx=0;entryDy=0;" edge="1" parent="1" source="1ciSNddEploUr1sxx8pW-91" target="1ciSNddEploUr1sxx8pW-66">
          <mxGeometry relative="1" as="geometry">
            <Array as="points">
              <mxPoint x="560" y="-142" />
              <mxPoint x="560" y="-142" />
            </Array>
          </mxGeometry>
        </mxCell>
        <mxCell id="1ciSNddEploUr1sxx8pW-91" value="k[0] == 0" style="rhombus;whiteSpace=wrap;html=1;" parent="1" vertex="1">
          <mxGeometry x="640" y="-142.5" width="150" height="80" as="geometry" />
        </mxCell>
        <mxCell id="lpzMeWUNliNwH_oLqPgW-81" style="edgeStyle=orthogonalEdgeStyle;rounded=0;orthogonalLoop=1;jettySize=auto;html=1;exitX=0.5;exitY=0;exitDx=0;exitDy=0;entryX=0;entryY=0.5;entryDx=0;entryDy=0;" edge="1" parent="1" source="1ciSNddEploUr1sxx8pW-96" target="1ciSNddEploUr1sxx8pW-10">
          <mxGeometry relative="1" as="geometry">
            <Array as="points">
              <mxPoint x="928" y="-380" />
              <mxPoint x="140" y="-380" />
            </Array>
          </mxGeometry>
        </mxCell>
        <mxCell id="1ciSNddEploUr1sxx8pW-96" value="t = Process.pop(Process.index(k)&lt;br&gt;&lt;br&gt;list.append([k, i+1]" style="whiteSpace=wrap;html=1;aspect=fixed;" parent="1" vertex="1">
          <mxGeometry x="840" y="-190" width="175" height="175" as="geometry" />
        </mxCell>
        <mxCell id="lpzMeWUNliNwH_oLqPgW-8" style="edgeStyle=orthogonalEdgeStyle;rounded=0;orthogonalLoop=1;jettySize=auto;html=1;exitX=0.5;exitY=0;exitDx=0;exitDy=0;entryX=0.5;entryY=1;entryDx=0;entryDy=0;" edge="1" parent="1" source="lpzMeWUNliNwH_oLqPgW-1" target="lpzMeWUNliNwH_oLqPgW-2">
          <mxGeometry relative="1" as="geometry" />
        </mxCell>
        <mxCell id="lpzMeWUNliNwH_oLqPgW-26" style="edgeStyle=orthogonalEdgeStyle;rounded=0;orthogonalLoop=1;jettySize=auto;html=1;exitX=1;exitY=0.5;exitDx=0;exitDy=0;entryX=0;entryY=0.5;entryDx=0;entryDy=0;" edge="1" parent="1" source="lpzMeWUNliNwH_oLqPgW-1" target="lpzMeWUNliNwH_oLqPgW-25">
          <mxGeometry relative="1" as="geometry" />
        </mxCell>
        <mxCell id="lpzMeWUNliNwH_oLqPgW-1" value="i in Process" style="rhombus;whiteSpace=wrap;html=1;" vertex="1" parent="1">
          <mxGeometry x="-310" y="270" width="170" height="80" as="geometry" />
        </mxCell>
        <mxCell id="lpzMeWUNliNwH_oLqPgW-9" style="edgeStyle=orthogonalEdgeStyle;rounded=0;orthogonalLoop=1;jettySize=auto;html=1;exitX=0.5;exitY=0;exitDx=0;exitDy=0;entryX=0.5;entryY=1;entryDx=0;entryDy=0;" edge="1" parent="1" source="lpzMeWUNliNwH_oLqPgW-2" target="lpzMeWUNliNwH_oLqPgW-3">
          <mxGeometry relative="1" as="geometry" />
        </mxCell>
        <mxCell id="lpzMeWUNliNwH_oLqPgW-14" style="edgeStyle=orthogonalEdgeStyle;rounded=0;orthogonalLoop=1;jettySize=auto;html=1;exitX=0;exitY=0.5;exitDx=0;exitDy=0;entryX=0;entryY=0.5;entryDx=0;entryDy=0;" edge="1" parent="1" source="lpzMeWUNliNwH_oLqPgW-2" target="lpzMeWUNliNwH_oLqPgW-1">
          <mxGeometry relative="1" as="geometry">
            <Array as="points">
              <mxPoint x="-330" y="190" />
              <mxPoint x="-330" y="310" />
            </Array>
          </mxGeometry>
        </mxCell>
        <mxCell id="lpzMeWUNliNwH_oLqPgW-2" value="if i[1] == 0" style="rhombus;whiteSpace=wrap;html=1;" vertex="1" parent="1">
          <mxGeometry x="-310" y="150" width="170" height="80" as="geometry" />
        </mxCell>
        <mxCell id="lpzMeWUNliNwH_oLqPgW-93" style="edgeStyle=orthogonalEdgeStyle;rounded=0;orthogonalLoop=1;jettySize=auto;html=1;exitX=0;exitY=0.5;exitDx=0;exitDy=0;entryX=0;entryY=0.5;entryDx=0;entryDy=0;" edge="1" parent="1" source="lpzMeWUNliNwH_oLqPgW-3" target="lpzMeWUNliNwH_oLqPgW-1">
          <mxGeometry relative="1" as="geometry">
            <Array as="points">
              <mxPoint x="-350" y="45" />
              <mxPoint x="-350" y="310" />
            </Array>
          </mxGeometry>
        </mxCell>
        <mxCell id="lpzMeWUNliNwH_oLqPgW-3" value="tag = i&lt;br&gt;&amp;nbsp;&lt;br&gt;index = Process.index(tag)" style="whiteSpace=wrap;html=1;aspect=fixed;" vertex="1" parent="1">
          <mxGeometry x="-290" y="-20" width="130" height="130" as="geometry" />
        </mxCell>
        <mxCell id="lpzMeWUNliNwH_oLqPgW-11" value="F" style="text;html=1;align=center;verticalAlign=middle;resizable=0;points=[];autosize=1;strokeColor=none;fillColor=none;" vertex="1" parent="1">
          <mxGeometry x="-330" y="230" width="30" height="30" as="geometry" />
        </mxCell>
        <mxCell id="lpzMeWUNliNwH_oLqPgW-18" value="T" style="text;html=1;align=center;verticalAlign=middle;resizable=0;points=[];autosize=1;strokeColor=none;fillColor=none;" vertex="1" parent="1">
          <mxGeometry x="-230" y="240" width="30" height="30" as="geometry" />
        </mxCell>
        <mxCell id="lpzMeWUNliNwH_oLqPgW-21" value="T" style="text;html=1;align=center;verticalAlign=middle;resizable=0;points=[];autosize=1;strokeColor=none;fillColor=none;" vertex="1" parent="1">
          <mxGeometry x="-230" y="120" width="30" height="30" as="geometry" />
        </mxCell>
        <mxCell id="lpzMeWUNliNwH_oLqPgW-28" style="edgeStyle=orthogonalEdgeStyle;rounded=0;orthogonalLoop=1;jettySize=auto;html=1;exitX=1;exitY=0.5;exitDx=0;exitDy=0;entryX=0;entryY=0.5;entryDx=0;entryDy=0;" edge="1" parent="1" source="lpzMeWUNliNwH_oLqPgW-25" target="1ciSNddEploUr1sxx8pW-10">
          <mxGeometry relative="1" as="geometry" />
        </mxCell>
        <mxCell id="lpzMeWUNliNwH_oLqPgW-25" value="temp = Process[0]&lt;br&gt;&lt;br&gt;Process[0] = tag&lt;br&gt;&lt;br&gt;Process[index] = temp" style="whiteSpace=wrap;html=1;aspect=fixed;" vertex="1" parent="1">
          <mxGeometry x="-90" y="230" width="160" height="160" as="geometry" />
        </mxCell>
        <mxCell id="lpzMeWUNliNwH_oLqPgW-27" value="F" style="text;html=1;align=center;verticalAlign=middle;resizable=0;points=[];autosize=1;strokeColor=none;fillColor=none;" vertex="1" parent="1">
          <mxGeometry x="-130" y="285" width="30" height="30" as="geometry" />
        </mxCell>
        <mxCell id="lpzMeWUNliNwH_oLqPgW-29" value="T" style="text;html=1;align=center;verticalAlign=middle;resizable=0;points=[];autosize=1;strokeColor=none;fillColor=none;" vertex="1" parent="1">
          <mxGeometry x="237.5" y="235" width="30" height="30" as="geometry" />
        </mxCell>
        <mxCell id="lpzMeWUNliNwH_oLqPgW-34" value="T" style="text;html=1;align=center;verticalAlign=middle;resizable=0;points=[];autosize=1;strokeColor=none;fillColor=none;" vertex="1" parent="1">
          <mxGeometry x="237.5" y="120" width="30" height="30" as="geometry" />
        </mxCell>
        <mxCell id="lpzMeWUNliNwH_oLqPgW-40" value="F" style="text;html=1;align=center;verticalAlign=middle;resizable=0;points=[];autosize=1;strokeColor=none;fillColor=none;" vertex="1" parent="1">
          <mxGeometry x="347.49" y="440" width="30" height="30" as="geometry" />
        </mxCell>
        <mxCell id="lpzMeWUNliNwH_oLqPgW-45" value="T" style="text;html=1;align=center;verticalAlign=middle;resizable=0;points=[];autosize=1;strokeColor=none;fillColor=none;" vertex="1" parent="1">
          <mxGeometry x="430" y="670" width="30" height="30" as="geometry" />
        </mxCell>
        <mxCell id="lpzMeWUNliNwH_oLqPgW-61" style="edgeStyle=orthogonalEdgeStyle;rounded=0;orthogonalLoop=1;jettySize=auto;html=1;exitX=0.5;exitY=0;exitDx=0;exitDy=0;entryX=0.5;entryY=1;entryDx=0;entryDy=0;" edge="1" parent="1" source="lpzMeWUNliNwH_oLqPgW-55" target="lpzMeWUNliNwH_oLqPgW-60">
          <mxGeometry relative="1" as="geometry" />
        </mxCell>
        <mxCell id="lpzMeWUNliNwH_oLqPgW-63" style="edgeStyle=orthogonalEdgeStyle;rounded=0;orthogonalLoop=1;jettySize=auto;html=1;exitX=1;exitY=0.5;exitDx=0;exitDy=0;entryX=0;entryY=0.5;entryDx=0;entryDy=0;" edge="1" parent="1" source="lpzMeWUNliNwH_oLqPgW-55" target="1ciSNddEploUr1sxx8pW-66">
          <mxGeometry relative="1" as="geometry" />
        </mxCell>
        <mxCell id="lpzMeWUNliNwH_oLqPgW-55" value="Process[Process.index(l[0])][3] == i" style="rhombus;whiteSpace=wrap;html=1;" vertex="1" parent="1">
          <mxGeometry x="142.49" y="-157.5" width="205" height="110" as="geometry" />
        </mxCell>
        <mxCell id="lpzMeWUNliNwH_oLqPgW-65" style="edgeStyle=orthogonalEdgeStyle;rounded=0;orthogonalLoop=1;jettySize=auto;html=1;exitX=1;exitY=0.5;exitDx=0;exitDy=0;" edge="1" parent="1" source="lpzMeWUNliNwH_oLqPgW-60" target="1ciSNddEploUr1sxx8pW-66">
          <mxGeometry relative="1" as="geometry" />
        </mxCell>
        <mxCell id="lpzMeWUNliNwH_oLqPgW-60" value="Process[Process.index(l[0])][3] = i" style="whiteSpace=wrap;html=1;aspect=fixed;" vertex="1" parent="1">
          <mxGeometry x="170" y="-360" width="150" height="150" as="geometry" />
        </mxCell>
        <mxCell id="lpzMeWUNliNwH_oLqPgW-62" value="T" style="text;html=1;align=center;verticalAlign=middle;resizable=0;points=[];autosize=1;strokeColor=none;fillColor=none;" vertex="1" parent="1">
          <mxGeometry x="237.5" y="-200" width="30" height="30" as="geometry" />
        </mxCell>
        <mxCell id="lpzMeWUNliNwH_oLqPgW-64" value="F" style="text;html=1;align=center;verticalAlign=middle;resizable=0;points=[];autosize=1;strokeColor=none;fillColor=none;" vertex="1" parent="1">
          <mxGeometry x="360" y="-130" width="30" height="30" as="geometry" />
        </mxCell>
        <mxCell id="lpzMeWUNliNwH_oLqPgW-67" value="T" style="text;html=1;align=center;verticalAlign=middle;resizable=0;points=[];autosize=1;strokeColor=none;fillColor=none;" vertex="1" parent="1">
          <mxGeometry x="590" y="-130" width="30" height="30" as="geometry" />
        </mxCell>
        <mxCell id="lpzMeWUNliNwH_oLqPgW-68" value="T" style="text;html=1;align=center;verticalAlign=middle;resizable=0;points=[];autosize=1;strokeColor=none;fillColor=none;" vertex="1" parent="1">
          <mxGeometry x="800" y="-130" width="30" height="30" as="geometry" />
        </mxCell>
        <mxCell id="lpzMeWUNliNwH_oLqPgW-97" style="edgeStyle=orthogonalEdgeStyle;rounded=0;orthogonalLoop=1;jettySize=auto;html=1;exitX=0.5;exitY=0;exitDx=0;exitDy=0;entryX=0.5;entryY=0;entryDx=0;entryDy=0;" edge="1" parent="1" source="lpzMeWUNliNwH_oLqPgW-72" target="1ciSNddEploUr1sxx8pW-24">
          <mxGeometry relative="1" as="geometry">
            <Array as="points">
              <mxPoint x="535" y="340" />
              <mxPoint x="345" y="340" />
            </Array>
          </mxGeometry>
        </mxCell>
        <mxCell id="lpzMeWUNliNwH_oLqPgW-72" value="finishTime[i[0][2]] = i[1]&lt;br&gt;&lt;br&gt;StartTime[i[0][2]] = i[0][3]" style="whiteSpace=wrap;html=1;aspect=fixed;" vertex="1" parent="1">
          <mxGeometry x="490.00000000000006" y="350" width="90" height="90" as="geometry" />
        </mxCell>
        <mxCell id="lpzMeWUNliNwH_oLqPgW-76" style="edgeStyle=orthogonalEdgeStyle;rounded=0;orthogonalLoop=1;jettySize=auto;html=1;exitX=0.5;exitY=1;exitDx=0;exitDy=0;entryX=0.5;entryY=0;entryDx=0;entryDy=0;" edge="1" parent="1" source="lpzMeWUNliNwH_oLqPgW-73" target="1ciSNddEploUr1sxx8pW-33">
          <mxGeometry relative="1" as="geometry" />
        </mxCell>
        <mxCell id="lpzMeWUNliNwH_oLqPgW-73" value="StartTime[index] = 0" style="whiteSpace=wrap;html=1;aspect=fixed;" vertex="1" parent="1">
          <mxGeometry x="285" y="480" width="120" height="120" as="geometry" />
        </mxCell>
        <mxCell id="lpzMeWUNliNwH_oLqPgW-80" value="F" style="text;html=1;align=center;verticalAlign=middle;resizable=0;points=[];autosize=1;strokeColor=none;fillColor=none;" vertex="1" parent="1">
          <mxGeometry x="590" y="-170" width="30" height="30" as="geometry" />
        </mxCell>
        <mxCell id="lpzMeWUNliNwH_oLqPgW-85" value="T" style="text;html=1;align=center;verticalAlign=middle;resizable=0;points=[];autosize=1;strokeColor=none;fillColor=none;" vertex="1" parent="1">
          <mxGeometry x="430" y="370" width="30" height="30" as="geometry" />
        </mxCell>
        <mxCell id="lpzMeWUNliNwH_oLqPgW-91" value="F" style="text;html=1;align=center;verticalAlign=middle;resizable=0;points=[];autosize=1;strokeColor=none;fillColor=none;" vertex="1" parent="1">
          <mxGeometry x="229.99" y="670" width="30" height="30" as="geometry" />
        </mxCell>
        <mxCell id="lpzMeWUNliNwH_oLqPgW-101" value="F" style="text;html=1;align=center;verticalAlign=middle;resizable=0;points=[];autosize=1;strokeColor=none;fillColor=none;" vertex="1" parent="1">
          <mxGeometry x="237.5" y="360" width="30" height="30" as="geometry" />
        </mxCell>
        <mxCell id="lpzMeWUNliNwH_oLqPgW-102" value="F" style="text;html=1;align=center;verticalAlign=middle;resizable=0;points=[];autosize=1;strokeColor=none;fillColor=none;" vertex="1" parent="1">
          <mxGeometry x="500" y="100" width="30" height="30" as="geometry" />
        </mxCell>
      </root>
    </mxGraphModel>
  </diagram>
</mxfile>
